<svg width="192" height="148" viewBox="0 0 192 148" fill="none" xmlns="http://www.w3.org/2000/svg">
<rect width="192" height="148" rx="16" fill="white"/>
<path d="M59.9432 59.2614C59.6705 56.5114 58.5 54.375 56.4318 52.8523C54.3636 51.3295 51.5568 50.5682 48.0114 50.5682C45.6023 50.5682 43.5682 50.9091 41.9091 51.5909C40.25 52.25 38.9773 53.1705 38.0909 54.3523C37.2273 55.5341 36.7955 56.875 36.7955 58.375C36.75 59.625 37.0114 60.7159 37.5795 61.6477C38.1705 62.5795 38.9773 63.3864 40 64.0682C41.0227 64.7273 42.2045 65.3068 43.5455 65.8068C44.8864 66.2841 46.3182 66.6932 47.8409 67.0341L54.1136 68.5341C57.1591 69.2159 59.9545 70.125 62.5 71.2614C65.0455 72.3977 67.25 73.7955 69.1136 75.4545C70.9773 77.1136 72.4205 79.0682 73.4432 81.3182C74.4886 83.5682 75.0227 86.1477 75.0455 89.0568C75.0227 93.3295 73.9318 97.0341 71.7727 100.17C69.6364 103.284 66.5455 105.705 62.5 107.432C58.4773 109.136 53.625 109.989 47.9432 109.989C42.3068 109.989 37.3977 109.125 33.2159 107.398C29.0568 105.67 25.8068 103.114 23.4659 99.7273C21.1477 96.3182 19.9318 92.1023 19.8182 87.0795H34.1023C34.2614 89.4205 34.9318 91.375 36.1136 92.9432C37.3182 94.4886 38.9205 95.6591 40.9205 96.4545C42.9432 97.2273 45.2273 97.6136 47.7727 97.6136C50.2727 97.6136 52.4432 97.25 54.2841 96.5227C56.1477 95.7955 57.5909 94.7841 58.6136 93.4886C59.6364 92.1932 60.1477 90.7045 60.1477 89.0227C60.1477 87.4545 59.6818 86.1364 58.75 85.0682C57.8409 84 56.5 83.0909 54.7273 82.3409C52.9773 81.5909 50.8295 80.9091 48.2841 80.2955L40.6818 78.3864C34.7955 76.9545 30.1477 74.7159 26.7386 71.6705C23.3295 68.625 21.6364 64.5227 21.6591 59.3636C21.6364 55.1364 22.7614 51.4432 25.0341 48.2841C27.3295 45.125 30.4773 42.6591 34.4773 40.8864C38.4773 39.1136 43.0227 38.2273 48.1136 38.2273C53.2955 38.2273 57.8182 39.1136 61.6818 40.8864C65.5682 42.6591 68.5909 45.125 70.75 48.2841C72.9091 51.4432 74.0227 55.1023 74.0909 59.2614H59.9432ZM99.7358 39.1818V109H84.9744V39.1818H99.7358ZM136.631 109H111.881V39.1818H136.835C143.858 39.1818 149.903 40.5795 154.972 43.375C160.04 46.1477 163.938 50.1364 166.665 55.3409C169.415 60.5455 170.79 66.7727 170.79 74.0227C170.79 81.2955 169.415 87.5455 166.665 92.7727C163.938 98 160.017 102.011 154.903 104.807C149.812 107.602 143.722 109 136.631 109ZM126.642 96.3523H136.017C140.381 96.3523 144.051 95.5795 147.028 94.0341C150.028 92.4659 152.278 90.0455 153.778 86.7727C155.301 83.4773 156.062 79.2273 156.062 74.0227C156.062 68.8636 155.301 64.6477 153.778 61.375C152.278 58.1023 150.04 55.6932 147.062 54.1477C144.085 52.6023 140.415 51.8295 136.051 51.8295H126.642V96.3523Z" fill="black"/>
</svg>
